<svg width="63" height="60" viewBox="0 0 63 60" fill="none" xmlns="http://www.w3.org/2000/svg">
<g id="Solid">
<path fill-rule="evenodd" clip-rule="evenodd" d="M44.9277 4.05633C42.3741 1.09396 38.1956 -0.298622 34.0325 1.68807C29.1924 3.99785 27.0757 9.54457 29.129 14.4169C30.1619 16.8678 32.9564 21.338 34.7991 24.201C34.8134 24.2233 34.8277 24.2455 34.842 24.2677C35.1531 24.7513 35.4668 25.2389 35.7727 25.638C36.1193 26.0901 36.5607 26.5733 37.1869 26.963C38.0718 27.5136 39.1394 27.7997 40.181 27.7652C40.9182 27.7409 41.5421 27.5431 42.0683 27.3249C42.5327 27.1322 43.0482 26.8668 43.5594 26.6036C43.5829 26.5915 43.6064 26.5794 43.63 26.5673C46.6572 25.0092 51.3124 22.5351 53.4324 20.9289C57.6162 17.7592 58.6772 11.8748 55.5295 7.42396C52.88 3.67757 48.6144 2.7674 44.9277 4.05633Z" fill="#D12E2E"/>
<path d="M45.3903 40.2893C45.3903 42.3994 43.9945 44.184 42.0706 44.7805L43.3077 44.7232C44.6597 44.7232 45.9742 44.298 47.0545 43.5083L54.5982 38.0046C56.481 36.6317 59.1163 36.814 60.7805 38.4329C62.6289 40.231 62.6289 43.1438 60.7805 44.9389L54.3078 51.2353C52.5655 52.9301 50.3424 54.0873 47.9257 54.5581L38.7771 56.338C36.963 56.6903 35.0927 56.6478 33.2973 56.2104L25.023 54.1997C24.0332 53.9567 23.0185 53.8352 21.9975 53.8352C20.9135 53.8352 20.3715 53.8352 19.9366 53.68C19.1834 53.4111 18.5907 52.8184 18.3218 52.0652C18.1665 51.6303 18.1665 51.0883 18.1665 50.0043V40.8599C18.1665 40.0977 18.1665 39.7166 18.2644 39.3654C18.3511 39.0543 18.4936 38.7615 18.6849 38.5013C18.9009 38.2076 19.2009 37.9725 19.8007 37.5022L22.9623 35.0235C22.9623 35.0235 28.2016 32.5737 31.0961 32.5737C32.295 32.5737 33.4878 32.7197 34.6524 33.0084L41.8089 34.7875C43.9134 35.3091 45.3903 37.1906 45.3903 39.3485V40.2893Z" fill="#D12E2E"/>
<path fill-rule="evenodd" clip-rule="evenodd" d="M7.42928 32.5737C7.45279 32.5737 7.47632 32.5737 7.49987 32.5737C7.52342 32.5737 7.54696 32.5737 7.57047 32.5737C8.13059 32.5737 8.67625 32.5736 9.14047 32.6053C9.64813 32.6399 10.2501 32.7212 10.8742 32.9797C12.181 33.521 13.2193 34.5593 13.7606 35.8661C14.0191 36.4902 14.1003 37.0921 14.135 37.5998C14.1666 38.064 14.1666 38.6097 14.1665 39.1698C14.1665 39.1933 14.1665 39.2169 14.1665 39.2404L14.1665 52.6444C14.1666 53.2045 14.1666 53.7501 14.135 54.2143C14.1003 54.722 14.0191 55.3239 13.7606 55.9481C13.2193 57.2549 12.181 58.2931 10.8742 58.8344C10.2501 59.0929 9.64813 59.1742 9.14047 59.2088C8.67625 59.2405 8.13059 59.2405 7.57048 59.2404H7.42925C6.86914 59.2405 6.32348 59.2405 5.85926 59.2088C5.3516 59.1742 4.74967 59.0929 4.12555 58.8344C2.81874 58.2931 1.78048 57.2549 1.23918 55.9481C0.980659 55.3239 0.899396 54.722 0.864759 54.2143C0.833085 53.7501 0.83314 53.2045 0.833196 52.6443L0.8332 39.2404C0.8332 39.2169 0.833198 39.1933 0.833196 39.1698C0.83314 38.6097 0.833085 38.064 0.864759 37.5998C0.899396 37.0921 0.98066 36.4902 1.23918 35.8661C1.78048 34.5593 2.81874 33.521 4.12556 32.9797C4.74967 32.7212 5.3516 32.6399 5.85926 32.6053C6.32349 32.5736 6.86916 32.5737 7.42928 32.5737Z" fill="#D12E2E"/>
</g>
</svg>
